<svg xmlns="http://www.w3.org/2000/svg" width="32" height="32" viewBox="0 0 32 32" fill="none">
  <path d="M29.8836 6.146L16.7418 29.6457c-.2714.4851-.9684.488-1.2439.0052L2.0956 6.1482c-.3-.5262.1498-1.1635.7574-1.0698l13.1247 2.0229c.0524.008.1058.008.1582 0L29.1281 5.0755c.6076-.0937 1.1057.5443.7555 1.0705z" fill="#646CFF"/>
  <path d="M23.2338 4.0213L15.978 27.4739c-.1916.6198-1.0503.6198-1.2419 0L7.0355 4.0213c-.2085-.6751.5165-1.2353 1.1175-.8613l7.2952 4.5316c.124.077.2815.077.4056 0l7.2952-4.5316c.601-.374 1.326.186 1.0848.8613z" fill="#fff"/>
</svg>